<mxfile host="65bd71144e">
    <diagram name="ページ1" id="16POWw2BMLzCoKCeQJE8">
        <mxGraphModel dx="1220" dy="656" grid="1" gridSize="10" guides="1" tooltips="1" connect="1" arrows="1" fold="1" page="1" pageScale="1" pageWidth="827" pageHeight="1169" math="0" shadow="0">
            <root>
                <mxCell id="0"/>
                <mxCell id="1" parent="0"/>
                <mxCell id="2" value="&lt;h1&gt;Level1信頼関係&lt;/h1&gt;&lt;p&gt;まずは信頼関係が構築されていること&lt;/p&gt;" style="text;html=1;strokeColor=none;fillColor=none;spacing=5;spacingTop=-20;whiteSpace=wrap;overflow=hidden;rounded=0;" parent="1" vertex="1">
                    <mxGeometry x="40" y="110" width="190" height="120" as="geometry"/>
                </mxCell>
                <mxCell id="5" value="最終目標" style="swimlane;whiteSpace=wrap;html=1;fillColor=#FFFFFF;" parent="1" vertex="1">
                    <mxGeometry x="252" y="10" width="200" height="130" as="geometry"/>
                </mxCell>
                <mxCell id="4" value="コントロールする&#10;or&#10;動いてもらう" style="rounded=1;fillColor=#003333;strokeColor=none;shadow=0;gradientColor=none;fontStyle=1;fontColor=#FFFFFF;fontSize=14;" parent="5" vertex="1">
                    <mxGeometry x="28" y="40" width="144" height="70" as="geometry"/>
                </mxCell>
                <mxCell id="6" value="中間目標プランA" style="swimlane;whiteSpace=wrap;html=1;fillColor=#FFFFFF;" parent="1" vertex="1">
                    <mxGeometry x="35" y="340" width="200" height="220" as="geometry"/>
                </mxCell>
                <mxCell id="16" style="edgeStyle=none;html=1;" parent="6" source="10" target="3" edge="1">
                    <mxGeometry relative="1" as="geometry"/>
                </mxCell>
                <mxCell id="10" value="好意" style="rounded=1;fillColor=#004D4D;strokeColor=none;shadow=0;gradientColor=none;fontStyle=1;fontColor=#FFFFFF;fontSize=14;" parent="6" vertex="1">
                    <mxGeometry x="22" y="130" width="144" height="70" as="geometry"/>
                </mxCell>
                <mxCell id="3" value="返報性の原理" style="rounded=1;fillColor=#004D4D;strokeColor=none;shadow=0;gradientColor=none;fontStyle=1;fontColor=#FFFFFF;fontSize=14;" parent="6" vertex="1">
                    <mxGeometry x="22" y="40" width="144" height="70" as="geometry"/>
                </mxCell>
                <mxCell id="8" value="中間目標プランB" style="swimlane;whiteSpace=wrap;html=1;fillColor=#FFFFFF;" parent="1" vertex="1">
                    <mxGeometry x="252" y="340" width="200" height="130" as="geometry"/>
                </mxCell>
                <mxCell id="9" value="社会的証明の原理&#10;多数の原理" style="rounded=1;fillColor=#004D4D;strokeColor=none;shadow=0;gradientColor=none;fontStyle=1;fontColor=#FFFFFF;fontSize=14;" parent="8" vertex="1">
                    <mxGeometry x="22" y="40" width="144" height="70" as="geometry"/>
                </mxCell>
                <mxCell id="17" value="" style="swimlane;whiteSpace=wrap;html=1;fillColor=#FFFFFF;" parent="1" vertex="1">
                    <mxGeometry x="470" y="340" width="200" height="280" as="geometry"/>
                </mxCell>
                <mxCell id="18" value="努力" style="rounded=1;fillColor=#004D4D;strokeColor=none;shadow=0;gradientColor=none;fontStyle=1;fontColor=#FFFFFF;fontSize=14;" parent="17" vertex="1">
                    <mxGeometry x="22" y="40" width="144" height="70" as="geometry"/>
                </mxCell>
                <mxCell id="29" value="人間の涙ぐましい努力に対して、それが報われなかった時の同情を誘うプラン" style="text;html=1;strokeColor=none;fillColor=none;align=left;verticalAlign=middle;whiteSpace=wrap;rounded=0;" parent="17" vertex="1">
                    <mxGeometry x="22" y="120" width="138" height="50" as="geometry"/>
                </mxCell>
                <mxCell id="31" value="キーメンバーを&lt;br&gt;・仲間に引き込む&lt;br&gt;・話を振ること" style="shape=callout;whiteSpace=wrap;html=1;perimeter=calloutPerimeter;" vertex="1" parent="1">
                    <mxGeometry x="354" y="230" width="120" height="110" as="geometry"/>
                </mxCell>
                <mxCell id="32" value="「一生懸命な姿」&lt;br&gt;を惜しみなく見せること" style="shape=callout;whiteSpace=wrap;html=1;perimeter=calloutPerimeter;" vertex="1" parent="1">
                    <mxGeometry x="550" y="260" width="120" height="80" as="geometry"/>
                </mxCell>
                <mxCell id="35" value="大衆心理" style="swimlane;whiteSpace=wrap;html=1;" vertex="1" parent="1">
                    <mxGeometry x="840" y="330" width="380" height="279.5" as="geometry"/>
                </mxCell>
                <mxCell id="36" style="edgeStyle=orthogonalEdgeStyle;rounded=0;orthogonalLoop=1;jettySize=auto;html=1;" edge="1" parent="35" source="37">
                    <mxGeometry relative="1" as="geometry">
                        <mxPoint x="162" y="243" as="targetPoint"/>
                    </mxGeometry>
                </mxCell>
                <mxCell id="37" value="「死亡率」&lt;br&gt;現状維持" style="rounded=1;whiteSpace=wrap;html=1;shadow=0;labelBackgroundColor=none;strokeColor=none;strokeWidth=3;fillColor=#1699d3;fontFamily=Helvetica;fontSize=14;fontColor=#FFFFFF;align=center;spacing=5;fontStyle=1;arcSize=7;perimeterSpacing=2;" vertex="1" parent="35">
                    <mxGeometry x="219" y="213" width="150" height="60" as="geometry"/>
                </mxCell>
                <mxCell id="38" style="edgeStyle=orthogonalEdgeStyle;rounded=0;orthogonalLoop=1;jettySize=auto;html=1;entryX=0;entryY=0.5;entryDx=0;entryDy=0;" edge="1" parent="35" target="37">
                    <mxGeometry relative="1" as="geometry">
                        <mxPoint x="162" y="243" as="sourcePoint"/>
                    </mxGeometry>
                </mxCell>
                <mxCell id="39" style="edgeStyle=orthogonalEdgeStyle;rounded=0;orthogonalLoop=1;jettySize=auto;html=1;entryX=0.5;entryY=0;entryDx=0;entryDy=0;" edge="1" parent="35" source="40" target="37">
                    <mxGeometry relative="1" as="geometry"/>
                </mxCell>
                <mxCell id="40" value="" style="rounded=1;whiteSpace=wrap;html=1;shadow=0;labelBackgroundColor=none;strokeColor=none;strokeWidth=3;fillColor=#64bbe2;fontFamily=Helvetica;fontSize=14;fontColor=#FFFFFF;align=center;spacing=5;arcSize=7;perimeterSpacing=2;" vertex="1" parent="35">
                    <mxGeometry x="219" y="33" width="150" height="149.5" as="geometry"/>
                </mxCell>
                <mxCell id="41" value="言語" style="text;html=1;strokeColor=none;fillColor=none;align=center;verticalAlign=middle;whiteSpace=wrap;rounded=0;" vertex="1" parent="35">
                    <mxGeometry x="160" y="213" width="60" height="30" as="geometry"/>
                </mxCell>
                <mxCell id="42" style="edgeStyle=orthogonalEdgeStyle;rounded=0;orthogonalLoop=1;jettySize=auto;html=1;entryX=0.5;entryY=0;entryDx=0;entryDy=0;" edge="1" parent="35" source="43" target="44">
                    <mxGeometry relative="1" as="geometry"/>
                </mxCell>
                <mxCell id="43" value="横断歩道&lt;br&gt;みんなで渡れば&lt;br&gt;怖くない" style="rounded=1;whiteSpace=wrap;html=1;shadow=0;labelBackgroundColor=none;strokeColor=none;strokeWidth=3;fillColor=#FCAD90;fontFamily=Helvetica;fontSize=14;fontColor=#FFFFFF;align=center;spacing=5;arcSize=7;perimeterSpacing=2;" vertex="1" parent="35">
                    <mxGeometry x="10" y="34.5" width="150" height="148" as="geometry"/>
                </mxCell>
                <mxCell id="44" value="「みんなやってるよ」&lt;br&gt;取り組む" style="rounded=1;whiteSpace=wrap;html=1;shadow=0;labelBackgroundColor=none;strokeColor=none;strokeWidth=3;fillColor=#e85642;fontFamily=Helvetica;fontSize=14;fontColor=#FFFFFF;align=center;spacing=5;fontStyle=1;arcSize=7;perimeterSpacing=2;" vertex="1" parent="35">
                    <mxGeometry x="10" y="213" width="150" height="60" as="geometry"/>
                </mxCell>
                <mxCell id="47" value="NG ：&lt;br&gt;「みんながやっている」&lt;br&gt;「権力意識」は&lt;br&gt;印象が悪い。&lt;br&gt;&lt;br&gt;そうではなくて、&lt;br&gt;「あくまで自分の意思で」&lt;br&gt;「開発にとってこれが良い」&lt;br&gt;というスタンスを見せること！" style="shape=mxgraph.signs.safety.no;html=1;pointerEvents=1;fillColor=#CC0000;strokeColor=none;verticalLabelPosition=bottom;verticalAlign=top;align=center;" vertex="1" parent="1">
                    <mxGeometry x="800" y="290" width="99" height="99" as="geometry"/>
                </mxCell>
                <mxCell id="49" style="edgeStyle=orthogonalEdgeStyle;html=1;entryX=0.5;entryY=1;entryDx=0;entryDy=0;" edge="1" parent="1" source="48" target="6">
                    <mxGeometry relative="1" as="geometry"/>
                </mxCell>
                <mxCell id="50" style="edgeStyle=orthogonalEdgeStyle;html=1;entryX=0.5;entryY=1;entryDx=0;entryDy=0;" edge="1" parent="1" source="48" target="8">
                    <mxGeometry relative="1" as="geometry"/>
                </mxCell>
                <mxCell id="51" style="edgeStyle=orthogonalEdgeStyle;html=1;entryX=0.5;entryY=1;entryDx=0;entryDy=0;" edge="1" parent="1" source="48" target="17">
                    <mxGeometry relative="1" as="geometry"/>
                </mxCell>
                <mxCell id="48" value="根拠 / データ / 自信" style="rounded=1;fillColor=#004D4D;strokeColor=none;shadow=0;gradientColor=none;fontStyle=1;fontColor=#FFFFFF;fontSize=14;" vertex="1" parent="1">
                    <mxGeometry x="35" y="660" width="635" height="70" as="geometry"/>
                </mxCell>
            </root>
        </mxGraphModel>
    </diagram>
</mxfile>